{"title":"The.Comic.Strip.Presents.The.Hunt.For.Tony.Blair.(2011).HDTV.Xvi","uid":6875960,"size":365289472,"categoryP":"video","categoryS":"tv_shows","magnet":"?xt=urn:btih:db234c13728e251238736092a19cbeda55c84d0a&amp;dn=The.Comic.Strip.Presents.The.Hunt.For.Tony.Blair.%282011%29.HDTV.Xvi&amp;tr=udp%3A%2F%2Ftracker.openbittorrent.com%3A80&amp;tr=udp%3A%2F%2Fopen.demonii.com%3A1337&amp;tr=udp%3A%2F%2Ftracker.coppersurfer.tk%3A6969&amp;tr=udp%3A%2F%2Fexodus.desync.com%3A6969","seeders":0,"leechers":0,"uploader":"rasher78","files":1,"time":1323421553,"description":"Xvid version. Scene standard.\n\n\nGeneral\nComplete name                    : The.Comic.Strip.Presents.The.Hunt.For.\n                                   Tony.Blair.(2011).HDTV.XviD.avi\nFormat                           : AVI\nFormat/Info                      : Audio Video Interleave\nFile size                        : 348 MiB\nDuration                         : 46mn 49s\nOverall bit rate                 : 1 040 Kbps\nWriting application              : VirtualDubMod 1.5.10.2 (build 2540/release)\nWriting library                  : VirtualDubMod build 2540/release\n\nVideo\nID                               : 0\nFormat                           : MPEG-4 Visual\nFormat profile                   : Advanced Simple@L5\nFormat settings, BVOP            : 2\nFormat settings, QPel            : No\nFormat settings, GMC             : No warppoints\nFormat settings, Matrix          : Default (H.263)\nMuxing mode                      : Packed bitstream\nCodec ID                         : XVID\nCodec ID/Hint                    : XviD\nDuration                         : 46mn 49s\nBit rate                         : 899 Kbps\nWidth                            : 624 pixels\nHeight                           : 352 pixels\nDisplay aspect ratio             : 16:9\nFrame rate                       : 25.000 fps\nColor space                      : YUV\nChroma subsampling               : 4:2:0\nBit depth                        : 8 bits\nScan type                        : Progressive\nCompression mode                 : Lossy\nBits/(Pixel*Frame)               : 0.164\nStream size                      : 301 MiB (86%)\nWriting library                  : XviD 64\n\nAudio\nID                               : 1\nFormat                           : MPEG Audio\nFormat version                   : Version 1\nFormat profile                   : Layer 3\nMode                             : Joint stereo\nMode extension                   : MS Stereo\nCodec ID                         : 55\nCodec ID/Hint                    : MP3\nDuration                         : 46mn 49s\nBit rate mode                    : Variable\nBit rate                         : 128 Kbps\nChannel(s)                       : 2 channels\nSampling rate                    : 48.0 KHz\nCompression mode                 : Lossy\nStream size                      : 42.9 MiB (12%)\nAlignment                        : Aligned on interleaves\nInterleave, duration             : 24 ms (0.60 video frame)\nInterleave, preload duration     : 515 ms\nWriting library                  : LAME3.98 \nEncoding settings                : -m j -V 4 -q 2 -lowpass 17 --abr 128\n\n","torrent":{"xt":"urn:btih:db234c13728e251238736092a19cbeda55c84d0a","amp;dn":"The.Comic.Strip.Presents.The.Hunt.For.Tony.Blair.%282011%29.HDTV.Xvi","amp;tr":["udp%3A%2F%2Ftracker.openbittorrent.com%3A80","udp%3A%2F%2Fopen.demonii.com%3A1337","udp%3A%2F%2Ftracker.coppersurfer.tk%3A6969","udp%3A%2F%2Fexodus.desync.com%3A6969"],"infoHash":"db234c13728e251238736092a19cbeda55c84d0a","infoHashBuffer":{"type":"Buffer","data":[219,35,76,19,114,142,37,18,56,115,96,146,161,156,190,218,85,200,77,10]},"announce":[],"urlList":[]}}